<svg xmlns="http://www.w3.org/2000/svg" xmlns:xlink="http://www.w3.org/1999/xlink" version="1.1" x="0px" y="0px" viewBox="0 0 100 100" enable-background="new 0 0 100 100" xml:space="preserve"><g><path fill="#666" d="M12.903,52.991v-6.031h13.617c0.276-2.141,0.815-4.198,1.622-6.122L9.398,30.016   c-2.966,6.022-4.64,12.794-4.64,19.96c0,7.165,1.674,13.938,4.64,19.959l18.744-10.822c-0.807-1.925-1.346-3.982-1.622-6.123   H12.903z"></path><path fill="#666" d="M50,35.577c-7.936,0-14.397,6.46-14.397,14.398c0,7.938,6.462,14.397,14.397,14.397   c7.938,0,14.4-6.46,14.4-14.397C64.4,42.037,57.938,35.577,50,35.577z M50,57.849c-4.342,0-7.872-3.532-7.872-7.873   c0-4.341,3.53-7.875,7.872-7.875s7.878,3.533,7.878,7.875C57.878,54.316,54.342,57.849,50,57.849z"></path><path fill="#666" d="M34.066,83.612l-5.227-3.016l6.825-11.824c-1.68-1.283-3.196-2.771-4.479-4.45L12.413,75.159   c7.599,11.314,20.161,18.998,34.57,19.946V73.459c-2.138-0.274-4.175-0.858-6.096-1.663L34.066,83.612z"></path><path fill="#666" d="M68.819,64.322c-1.288,1.682-2.802,3.168-4.479,4.451l6.823,11.823l-5.223,3.016l-6.823-11.814   c-1.919,0.804-3.958,1.388-6.101,1.662v21.646c14.409-0.949,26.978-8.634,34.569-19.946L68.819,64.322z"></path><path fill="#666" d="M90.605,30.018l-18.744,10.82c0.807,1.924,1.351,3.981,1.622,6.122H87.1v6.031H73.483   c-0.271,2.14-0.815,4.197-1.622,6.123l18.744,10.819c2.965-6.02,4.636-12.793,4.636-19.957   C95.241,42.811,93.57,36.038,90.605,30.018z"></path><path fill="#666" d="M65.94,16.339l5.223,3.016L64.34,31.177c1.678,1.284,3.191,2.771,4.479,4.451l18.767-10.836   C79.994,13.48,67.426,5.794,53.017,4.845v21.646c2.143,0.274,4.182,0.856,6.101,1.662L65.94,16.339z"></path><path fill="#666" d="M35.665,31.177L28.84,19.354l5.227-3.016l6.821,11.815c1.921-0.807,3.958-1.389,6.096-1.663V4.845   c-14.409,0.949-26.972,8.634-34.57,19.947l18.773,10.836C32.469,33.949,33.985,32.461,35.665,31.177z"></path></g></svg>